/* XPM */
static char* aaa[] = {
/* columns rows colors chars-per-pixel */
"128 127 2 1 ",
"  c None",
". c black",
/* pixels */
"                                                      ...............                                                           ",
"                                                 .........................                                                      ",
"                                              ................................                                                  ",
"                                           ......................................                                               ",
"                                        ...............               .............                                             ",
"                                      ............                         ...........                                          ",
"                                    ...........                               ..........                                        ",
"                                   .........                                     ........                                       ",
"                                 .........                                         ........                                     ",
"                                ........                                             ........                                   ",
"                              ........                                                 .......                                  ",
"                             .......                                                     ......                                 ",
"                            .......                                                       .......                               ",
"                           ......                                                          .......                              ",
"                          ......                                                             ......                             ",
"                         ......                                                               ......                            ",
"                        .....                                                                  ......                           ",
"                       .....                                                                    ......                          ",
"                      .....                                                                      ......                         ",
"                     .....                                                                        ......                        ",
"                     .....                                                                         .....                        ",
"                    .....                                                                           .....                       ",
"                   .....                                                                             .....                      ",
"                  .....                                                                              .....                      ",
"                  ....                                                                                .....                     ",
"                 .....                                                                                 .....                    ",
"............................................................................                           .....                    ",
"............................................................................                            .....                   ",
"............................................................................                             ....                   ",
" .....                                                                  ....                             .....                  ",
"  .....                                                                 ....                              ....                  ",
"   ....                                                                 ....                              .....                 ",
"   .....                                                                ....                               ....                 ",
"    .....                                                               ....                               .....                ",
"     .....                                                              ....                                ....                ",
"      ....                                                              ....                                ....                ",
"      .....                                                             ....                                .....               ",
"       .....                                                            ....                                 ....               ",
"        .....                 ................................          ....                                 ....               ",
"        .....                ..................................         ....                                 ....               ",
"         .....               ..................................         ....                                  ....              ",
"          .....              ..................................         ....                                  ....              ",
"           .....              .....                        ....         ....                                  ....              ",
"           .....               ....                        ....         ....                                  ....              ",
"            .....              .....                       ....         ....                                  ....              ",
"             .....              .....                      ....         ....                                   ...              ",
"              ....               .....                     ....         ....                                   ....             ",
"              .....               ....                     ....         ....                                   ....             ",
"               .....              .....                    ....         ....                                   ....             ",
"                .....              .....                   ....         ....                                   ....             ",
"                 ....               .....                  ....         ....                                   ....             ",
"                 .....               ....                  ....         ....                                   ....             ",
"           ..     .....              .....                 ....         ....                                   ....             ",
"          ....     .....              .....                ....         ....                                   .....            ",
"          ....      ....               .....               ....         ....                                    ....            ",
"          ....      .....               ....               ....         ....                                    ....            ",
"          ....       .....              .....              ....         ....                                     ....           ",
"          ....        .....              .....             ....         ....                                     ....           ",
"          ....         ....               .....            ....         ....                                     .....          ",
"          ....         .....              .....            ....         ....                                      ....          ",
"          .....         .....              .....           ....         ....                                      .....         ",
"           ....          .....              .....          ....         ....                                       .....        ",
"           ....           ....               .....         ....         ....                                       .....        ",
"           ....           .....              .....         ....         ....                                        .....       ",
"           ....            .....              .....        ....         ....                                         .....      ",
"            ....            .....              .....       ....         ....                                         .....      ",
"            ....            .....               ....       ....         ....                                          .....     ",
"            ....             .....              .....      ....         ....                                           .....    ",
"             ....             .....              .....     ....         ....                                            .....   ",
"             ....              .....              .....    ....         ....                                            ......  ",
"             ....              .....               ....    ....         ....                                             .....  ",
"              ....              .....              .....   ....         ....                                              ..... ",
"              ....               .....              .....  ....         ....                                               .....",
"               ....               ....               ..... ....         ....                                                ....",
"               ....               .....               .... ....         ....                                                ....",
"                ....               .....              .........         ....                                                ....",
"                ....                .....              ........         ....                                               .....",
"                 ....                ....               .......         ....                                              ..... ",
"                 ....                .....               ......         ....                                            ....... ",
"                  ....                .....              ......         ....                                          ........  ",
"                  .....                .....              .....         ....                                        ........    ",
"                   ....                 ....               ....         ....                                      .........     ",
"                    ....                .....               ...         ....                                    .........       ",
"                    .....                .....                          ....                                   ........         ",
"                     ....                 .....                         ....                                   ......           ",
"                     .....                 ....                         ....                                   ....             ",
"                      .....                .....                        ....                                   ....             ",
"                       ....                 .....                       ....                                   ....             ",
"                       .....                 .....                      ....                                   ....             ",
"                        ....                  ....                      ....                                   ....             ",
"                        .....                 .....                     ....                                   ....             ",
"                         .....                 .....                    ....                                   ....             ",
"                          ....                  .....                   ....                                   ....             ",
"                          .....                 .....                   ....                                   ....             ",
"                           ....                  .....                  ....                                   ....             ",
"                           .....                  .....                 ....                                   ....             ",
"                            ....                   .....                ....                                   ....             ",
"                            .....                  .....                ....                                   ....             ",
"                             ....                   .....               ....                                   ....             ",
"                             ....                    .....              ....                                   ....             ",
"                              ....                    .....             ....                                   ....             ",
"                              ....                    .....             ....                                   ....             ",
"                              ....                     .....            ....                                   ....             ",
"                              .....                     .....           ....                                   ....             ",
"                               ....                      ....           ....                                  ....              ",
"                               ....                      .....          ....                                ......              ",
"                               ....                       .....         ....                             ........               ",
"                               ....                        .....        ....                 .  ................                ",
"                                ....                        ....        ....              ....................                  ",
"                                ....                        .....       ....             ...................                    ",
"                                ....                         .....      ....            .................                       ",
"                                ....                          .....     ....           ......                                   ",
"                                ....                           ....     ....           ....                                     ",
"                                ....                           .....    ....          ....                                      ",
"                                 ...                            .....   ....          ....                                      ",
"                                 ....                            .....  ....          ....                                      ",
"                                 ....                             ....  ....          ....                                      ",
"                                 ....                             ..... ....          ....                                      ",
"                                 ....                              .........          ....                                      ",
"                                 ....                               ........          ....                                      ",
"                                 ....                                .......          ....                                      ",
"                                 ....                                .......          ....                                      ",
"                                 ....                                 ......          ....                                      ",
"                                 ....                                  .....          ....                                      ",
"                                 ....                                  .....          ....                                      ",
"                                 ....                                   ....          ....                                      ",
"                                  ..                                     ...           ..                                       "
};
